<?xml version="1.0" encoding="utf-8"?>
<!-- Generator: Adobe Illustrator 19.0.0, SVG Export Plug-In . SVG Version: 6.00 Build 0)  -->
<svg version="1.1" id="Layer_1" xmlns="http://www.w3.org/2000/svg" xmlns:xlink="http://www.w3.org/1999/xlink" x="0px" y="0px"
	 width="37.1px" height="56.8px" viewBox="150 -92.1 37.1 56.8" style="enable-background:new 150 -92.1 37.1 56.8;"
	 xml:space="preserve">
<style type="text/css">
	.st0{fill:#306EE7;}
	.st1{fill:#FAD749;}
</style>
<polygon class="st0" points="187.1,-35.3 168.6,-48.7 150,-35.3 150,-92.1 187.1,-92.1 "/>
<path class="st1" d="M179.4-72.7l-7.3,0l-3.6-7.4c-0.2-0.4-0.7-0.4-0.9,0l-3.6,7.4l-7.3,0c-0.4,0-0.6,0.5-0.4,0.8l5.2,6.2l-2,8.5
	c-0.1,0.4,0.3,0.7,0.7,0.5l7.8-4l7.8,3.9c0.4,0.2,0.8-0.2,0.7-0.6l-2.4-8.5l5.6-6.1C180.1-72.2,179.9-72.7,179.4-72.7z"/>
</svg>
